<?xml version="1.0" standalone="no"?>
<!DOCTYPE svg PUBLIC "-//W3C//DTD SVG 20010904//EN"
 "http://www.w3.org/TR/2001/REC-SVG-20010904/DTD/svg10.dtd">
<svg version="1.0" xmlns="http://www.w3.org/2000/svg"
 width="1024.000000pt" height="1024.000000pt" viewBox="0 0 1024.000000 1024.000000"
 preserveAspectRatio="xMidYMid meet">
<metadata>
Created by potrace 1.14, written by Peter Selinger 2001-2017
</metadata>
<g transform="translate(0.000000,1024.000000) scale(0.100000,-0.100000)"
fill="#000000" stroke="none">
<path d="M0 5120 l0 -5120 4720 0 4720 0 0 80 0 80 320 0 320 0 0 -80 0 -80
80 0 80 0 0 5120 0 5120 -5120 0 -5120 0 0 -5120z m7427 3752 c-5 -60 -21 -98
-45 -107 -10 -4 -12 5 -6 40 3 25 4 45 1 45 -17 0 -37 -14 -37 -25 0 -7 -5
-15 -11 -17 -18 -6 -1 -65 21 -71 22 -6 18 -36 -11 -77 -9 -14 -47 -72 -84
-130 -37 -58 -73 -112 -79 -121 -6 -9 -40 -59 -75 -110 -35 -52 -76 -110 -90
-129 -28 -36 -83 -128 -142 -235 -75 -138 -127 -223 -169 -279 -42 -55 -115
-164 -265 -396 -61 -93 -86 -128 -153 -212 -20 -26 -46 -64 -56 -85 -11 -21
-32 -51 -47 -68 -59 -67 -115 -122 -127 -126 -21 -7 -4 -95 24 -129 28 -32 30
-40 10 -40 -8 0 -17 8 -20 18 -9 28 -52 83 -59 75 -4 -3 -23 29 -44 73 -34 72
-90 139 -117 139 -5 0 -13 -11 -16 -25 -4 -16 -14 -26 -28 -28 -12 -2 -22 -9
-22 -16 0 -7 -8 -17 -19 -22 -16 -8 -89 -68 -158 -131 -13 -11 -43 -36 -65
-55 -23 -18 -67 -59 -97 -90 -31 -32 -59 -58 -62 -58 -3 0 -23 -16 -43 -35
-21 -19 -42 -35 -47 -35 -6 0 -7 -9 -4 -21 5 -16 -3 -29 -39 -61 -25 -23 -46
-48 -46 -55 0 -7 -7 -13 -15 -13 -8 0 -15 -4 -15 -10 0 -5 -6 -10 -13 -10 -8
0 -28 -18 -46 -40 -17 -22 -27 -40 -22 -40 6 0 16 9 23 20 7 11 20 20 29 20 9
0 19 7 23 15 3 8 15 15 26 15 11 0 20 5 20 11 0 15 72 89 81 83 4 -2 13 5 19
16 6 11 17 20 26 20 8 0 17 7 20 15 4 8 10 15 14 15 4 0 32 24 61 54 30 29 68
60 84 69 17 8 45 29 62 46 18 17 40 31 48 31 9 0 18 7 22 16 7 18 -15 36 -36
29 -11 -5 -12 -3 -1 10 10 11 15 13 20 4 5 -6 16 -8 29 -4 12 4 21 2 21 -4 0
-25 37 -8 79 38 49 52 85 76 101 66 16 -10 11 -21 -16 -35 -34 -18 -48 -46
-49 -94 0 -36 -4 -40 -35 -51 -27 -9 -35 -17 -35 -36 0 -13 -7 -28 -15 -34 -8
-5 -15 -16 -16 -22 -1 -7 -2 -22 -2 -33 -1 -12 -9 -20 -19 -20 -13 0 -14 -3
-6 -11 9 -9 6 -20 -13 -45 -16 -20 -21 -35 -15 -39 14 -8 -12 -60 -35 -69 -15
-6 -16 -8 0 -24 24 -27 20 -35 -14 -29 -16 4 -30 2 -30 -3 0 -5 -26 -22 -57
-36 -143 -67 -208 -149 -274 -345 -57 -169 -50 -384 16 -489 25 -40 124 -120
147 -120 9 0 32 -7 51 -15 72 -30 204 -14 281 35 50 32 119 120 173 223 19 37
39 67 43 67 4 0 11 26 15 58 7 51 8 54 17 32 14 -35 1 -217 -19 -276 -9 -27
-26 -65 -39 -85 -32 -51 -159 -165 -229 -205 -128 -73 -342 -177 -415 -201
-73 -25 -81 -26 -350 -24 -265 2 -276 2 -292 22 -12 15 -25 19 -40 16 l-23 -6
3 247 c5 491 6 535 20 539 6 3 12 12 12 22 0 17 82 101 100 101 5 0 7 7 4 15
-4 9 0 15 7 15 18 1 59 35 59 49 0 6 5 11 10 11 6 0 10 15 11 33 1 30 1 31 9
7 4 -14 8 -19 9 -13 1 7 12 15 26 19 18 5 28 15 32 36 4 20 8 25 14 17 9 -16
87 51 81 69 -2 7 2 12 10 12 7 0 19 9 26 20 10 17 10 23 -3 36 -12 13 -17 13
-28 2 -8 -7 -12 -19 -9 -27 3 -8 0 -11 -6 -7 -6 3 -13 2 -16 -3 -3 -5 -15 -7
-26 -4 -12 3 -28 -4 -45 -23 -29 -32 -25 -46 6 -18 21 19 79 29 79 13 0 -13
-22 -23 -53 -24 -17 -1 -34 -9 -39 -19 -8 -15 -12 -16 -19 -5 -6 11 -18 4 -51
-29 -24 -23 -49 -42 -55 -42 -6 0 -31 -22 -55 -48 -58 -65 -117 -109 -153
-116 -25 -5 -37 0 -70 29 -22 19 -45 35 -52 35 -7 0 -13 4 -13 10 0 5 -12 13
-26 16 -14 4 -21 9 -16 13 13 8 -53 81 -73 81 -8 0 -18 6 -22 13 -4 6 -15 12
-23 12 -15 0 -16 7 -5 38 5 12 2 17 -9 17 -9 0 -19 7 -22 15 -4 8 -11 15 -17
15 -5 0 -29 16 -53 35 -23 19 -53 39 -66 44 -32 13 -128 100 -128 117 0 7 -6
11 -12 9 -17 -6 -71 42 -63 55 3 6 3 15 -1 21 -4 8 -9 7 -15 -2 -7 -12 -10
-12 -21 0 -10 10 -10 12 0 7 6 -4 12 -2 12 3 0 6 -7 11 -16 11 -9 0 -18 9 -21
20 -3 11 -12 20 -19 20 -8 0 -14 4 -14 9 0 5 -10 11 -22 15 -19 5 -21 8 -8 16
11 7 7 10 -17 10 -27 0 -31 3 -26 18 6 15 5 15 -10 3 -12 -9 -14 -17 -7 -26
15 -18 2 -24 -36 -18 -27 4 -34 2 -34 -10 0 -9 -10 -23 -22 -31 -22 -16 -22
-16 10 -16 17 0 40 -8 50 -17 10 -10 34 -26 54 -36 20 -11 41 -29 48 -42 8
-15 18 -21 31 -18 25 7 63 -25 49 -42 -6 -8 4 -23 36 -49 56 -47 69 -41 18 8
-20 20 -34 39 -30 43 3 4 22 -9 42 -28 26 -25 34 -39 29 -56 -4 -16 -1 -23 10
-23 8 0 15 5 15 10 0 6 21 -5 48 -24 34 -24 46 -39 45 -55 -2 -11 1 -21 6 -21
5 0 24 -15 43 -33 18 -18 49 -44 69 -59 49 -36 232 -218 254 -252 16 -24 19
-60 22 -299 4 -322 4 -298 -1 -367 -3 -35 1 -64 10 -82 8 -15 14 -31 14 -36 0
-21 -322 -44 -500 -37 -128 6 -211 22 -290 57 -25 11 -90 36 -144 55 -129 45
-160 61 -223 120 -28 26 -92 82 -141 123 -49 41 -98 87 -108 102 -19 28 -34
36 -34 19 0 -5 38 -48 85 -96 118 -119 123 -155 27 -196 -36 -16 -47 -28 -68
-74 -14 -30 -30 -55 -35 -55 -36 0 41 -164 95 -202 6 -4 8 -10 4 -13 -3 -4
-23 9 -45 28 -21 19 -52 43 -70 53 -17 11 -57 34 -89 52 -72 43 -184 132 -184
147 0 7 -9 20 -20 30 -11 10 -20 22 -20 26 0 5 -11 25 -25 45 -14 20 -25 45
-25 55 0 11 -6 19 -14 19 -18 0 -10 -33 26 -105 14 -28 28 -66 32 -85 6 -34 5
-34 -29 19 -41 62 -85 151 -85 172 0 8 -9 37 -19 64 -23 60 -18 122 22 305 32
141 74 367 82 435 3 28 15 106 25 175 18 118 37 327 33 360 -5 41 -12 70 -17
79 -16 25 -360 300 -490 391 -162 113 -255 198 -304 274 -20 32 -22 43 -13 58
6 10 18 48 27 85 44 191 164 496 200 510 8 3 25 -6 40 -22 56 -61 275 -328
315 -384 24 -34 46 -61 50 -61 3 0 22 -24 42 -52 19 -29 54 -73 76 -97 23 -24
41 -45 41 -48 0 -2 23 -33 50 -69 28 -36 57 -79 65 -95 9 -16 21 -29 27 -29
13 0 24 -13 89 -112 l51 -77 51 36 c29 20 54 40 55 45 2 4 10 8 17 8 7 0 15 9
18 20 4 15 0 20 -16 20 -22 0 -107 72 -107 90 0 5 -3 10 -7 10 -11 0 -84 72
-103 100 -8 13 -27 34 -42 48 -16 14 -28 29 -28 34 0 5 -18 27 -40 49 -22 22
-40 44 -40 48 0 15 -71 106 -82 106 -7 0 -18 11 -25 25 -7 14 -30 45 -53 70
-22 25 -40 50 -40 56 0 7 -14 27 -31 45 -17 18 -39 50 -50 70 -10 21 -58 79
-106 130 -117 122 -125 129 -134 123 -5 -3 -14 6 -20 19 -9 21 -8 28 10 46 12
12 21 26 21 32 0 6 26 35 57 64 l57 53 -18 41 c-22 48 -33 52 -38 14 -2 -16
-12 -32 -25 -39 -13 -6 -31 -18 -40 -27 -17 -14 -20 -13 -49 16 -17 18 -66 77
-110 132 -43 54 -102 124 -129 155 -28 30 -85 98 -126 150 -98 122 -105 129
-164 174 -92 69 -135 162 -58 127 16 -7 30 -12 32 -11 2 1 7 -2 10 -7 7 -11
207 -133 217 -133 3 0 21 -13 39 -29 18 -16 77 -55 132 -87 54 -31 150 -92
213 -134 63 -43 126 -83 140 -90 14 -7 45 -29 70 -50 25 -20 65 -47 90 -60 25
-13 77 -45 117 -71 40 -27 76 -49 80 -49 18 0 139 -120 158 -156 11 -22 47
-86 80 -144 33 -58 89 -166 124 -240 35 -74 72 -146 81 -160 10 -14 36 -61 58
-105 50 -96 53 -100 120 -153 60 -47 82 -51 144 -23 24 11 138 49 253 84 748
232 708 221 795 222 62 0 97 -7 205 -43 318 -104 378 -123 505 -162 74 -23
169 -53 210 -66 41 -13 94 -24 119 -24 69 0 108 48 220 270 51 102 97 190 101
195 5 6 38 69 75 140 77 149 139 246 187 292 18 17 96 69 173 116 77 46 180
109 228 140 48 32 109 68 135 81 27 13 84 51 127 83 89 64 113 81 265 176 196
123 285 181 295 193 12 13 46 33 59 34 5 0 6 -26 3 -58z m-5952 -37 c23 -25
35 -49 40 -80 3 -25 10 -45 16 -45 5 0 9 -6 9 -14 0 -8 7 -27 15 -43 8 -15 28
-59 45 -98 17 -38 35 -78 41 -87 5 -10 9 -24 9 -32 0 -7 11 -21 24 -29 13 -9
26 -30 30 -48 3 -17 16 -48 28 -68 13 -20 33 -65 46 -101 12 -36 31 -77 42
-92 11 -15 20 -32 20 -38 0 -5 4 -10 9 -10 6 0 9 -10 9 -22 -3 -54 2 -77 16
-72 8 3 17 1 21 -5 10 -16 25 -13 25 5 0 15 2 15 25 0 13 -9 35 -16 49 -16 32
0 39 -13 31 -51 -6 -24 -11 -30 -26 -26 -16 4 -19 1 -17 -21 2 -19 -1 -26 -12
-24 -19 4 -40 -25 -40 -56 0 -13 -15 -56 -34 -95 -18 -40 -39 -89 -47 -109 -7
-21 -16 -38 -21 -38 -4 0 -12 19 -19 43 -10 39 -49 173 -69 240 -5 16 -13 34
-18 40 -5 7 -12 26 -14 42 -3 17 -24 82 -47 145 -22 63 -64 198 -92 300 -28
102 -73 253 -100 337 -48 149 -56 183 -42 196 10 11 12 9 48 -28z m105 -754
c19 -76 29 -108 50 -161 12 -30 25 -66 30 -80 5 -14 24 -62 43 -106 19 -45 51
-135 71 -200 20 -66 43 -140 51 -165 18 -57 19 -82 3 -77 -22 8 -56 67 -63
111 -11 72 -82 314 -155 526 -68 198 -89 283 -55 217 9 -16 20 -46 25 -65z
m5490 -841 c0 -5 -3 -10 -8 -10 -4 0 -18 -10 -32 -23 -85 -76 -173 -147 -183
-147 -21 0 188 189 211 190 6 0 12 -4 12 -10z m-260 -225 c0 -7 -43 -46 -65
-57 -19 -11 -19 -10 -5 8 29 36 70 65 70 49z m-132 -123 c-24 -22 -59 -52 -78
-68 -19 -16 -37 -31 -40 -34 -4 -5 -101 -84 -184 -150 -17 -13 -53 -46 -81
-72 -50 -47 -61 -50 -67 -13 -2 13 6 24 27 34 17 8 32 18 33 23 2 4 9 8 16 8
6 0 48 30 91 66 44 37 98 79 120 93 22 14 47 33 55 41 18 17 58 51 109 93 50
41 49 25 -1 -21z m-883 -112 c-3 -5 -13 -10 -21 -10 -8 0 -14 -4 -14 -9 0 -10
-30 -24 -37 -17 -4 4 58 46 70 46 5 0 5 -4 2 -10z m-3355 -75 c11 -13 10 -14
-4 -9 -9 3 -16 10 -16 15 0 13 6 11 20 -6z m3656 -135 c5 1 10 -3 12 -8 2 -6
-6 -8 -17 -5 -12 3 -21 13 -21 22 0 12 2 13 9 3 4 -8 12 -13 17 -12z m90 -16
c24 -31 28 -45 30 -127 4 -111 22 -293 35 -362 10 -50 31 -274 32 -330 1 -92
18 -260 27 -269 37 -37 34 94 -6 354 -4 24 -2 32 5 25 10 -10 52 -203 66 -305
4 -25 13 -65 20 -90 19 -64 27 -119 27 -200 0 -63 -5 -79 -52 -177 -29 -59
-56 -110 -59 -113 -4 -3 -20 -27 -36 -55 -71 -125 -198 -273 -233 -275 -8 0
-12 4 -10 9 5 14 126 149 173 193 22 21 40 41 41 46 2 17 24 61 33 67 13 8 15
45 2 45 -5 0 -19 -15 -30 -34 -12 -19 -28 -37 -36 -40 -20 -7 -19 0 4 32 32
47 61 115 61 146 0 40 21 100 43 124 20 22 22 33 5 31 -31 -4 -39 2 -36 29 3
26 2 27 -67 35 -92 11 -150 28 -133 39 8 5 2 6 -14 2 -16 -3 -39 -3 -53 0 -25
6 -25 8 -19 73 5 47 4 64 -4 59 -7 -4 -9 10 -6 46 3 29 7 54 9 56 2 2 -2 21
-9 41 -26 71 -46 144 -46 170 0 14 -4 40 -9 57 -12 42 4 69 18 31 6 -16 11
-32 11 -37 0 -5 12 -21 26 -35 22 -22 28 -38 33 -92 0 -6 12 -24 25 -40 14
-16 24 -36 24 -44 -4 -68 3 -119 17 -119 9 0 17 -14 21 -40 4 -21 15 -47 25
-56 11 -9 19 -29 19 -44 0 -20 7 -29 33 -38 48 -17 81 -16 73 3 -3 8 -1 15 4
15 16 0 11 27 -5 34 -8 3 -15 15 -15 26 0 11 -7 20 -15 20 -9 0 -15 9 -15 24
0 13 7 26 15 30 20 7 19 26 -1 26 -14 0 -15 10 -10 73 6 54 3 84 -8 117 -10
29 -12 46 -5 49 6 2 4 10 -6 21 -12 14 -14 26 -7 58 6 25 6 57 0 84 -5 24 -15
70 -21 103 -6 33 -17 64 -24 68 -7 4 -13 19 -13 32 0 28 -17 34 -27 10 -3 -9
1 -23 10 -33 13 -15 13 -19 1 -30 -9 -8 -14 -29 -12 -52 2 -35 -10 -72 -13
-42 -1 7 -3 17 -4 22 -1 6 -3 13 -4 18 -1 4 -5 1 -10 -7 -7 -10 -11 -5 -16 17
-3 18 -4 36 0 42 3 5 2 10 -3 10 -5 0 -6 14 -4 32 3 22 0 35 -12 44 -11 8 -13
14 -6 19 5 3 7 11 3 18 -3 6 -7 28 -7 49 -1 21 -5 37 -11 36 -5 -2 -9 -12 -8
-23 2 -11 0 -101 -4 -200 -6 -176 -9 -185 -32 -97 -7 23 -16 42 -22 42 -6 0
-7 5 -3 11 8 13 -23 86 -50 116 -24 28 -17 37 16 24 15 -5 28 -21 32 -35 3
-14 11 -26 16 -26 12 0 10 62 -2 71 -5 3 -4 34 1 70 5 35 6 88 4 117 -4 32 -2
52 5 52 11 0 22 -33 22 -72 0 -21 5 -26 20 -25 20 1 29 17 10 17 -14 0 -13 37
2 46 27 17 52 -68 27 -93 -8 -8 -8 -13 0 -18 6 -3 14 2 17 12 3 10 9 26 14 35
6 10 6 18 0 20 -12 4 -16 95 -6 126 7 22 9 23 27 6 11 -9 20 -15 22 -13 24 42
26 48 12 43 -8 -3 -21 1 -30 10 -13 13 -14 19 -3 36 7 11 19 20 26 20 9 0 11
7 7 20 -10 32 11 23 41 -16z m-743 -57 c3 -7 -3 -13 -14 -14 -15 -1 -16 1 -6
12 15 18 14 18 20 2z m477 -242 c0 -19 -4 -23 -17 -18 -37 13 -38 43 -2 43 14
0 19 -7 19 -25z m-152 -110 c4 -16 2 -16 -27 1 -16 10 -28 21 -25 25 8 13 49
-7 52 -26z m92 -16 c34 -28 70 -92 58 -105 -5 -4 -108 120 -108 130 0 12 11 6
50 -25z m-1 -80 c29 -50 21 -63 -9 -15 -12 20 -26 36 -31 36 -5 0 -9 5 -9 10
0 24 28 7 49 -31z m-256 3 c-1 -5 7 -8 17 -5 19 5 25 -8 21 -43 -1 -7 6 -11
16 -10 24 2 43 -52 23 -64 -12 -8 -10 -10 8 -10 24 0 30 -15 10 -23 -10 -4 -9
-8 2 -16 17 -12 11 -20 -20 -26 -13 -2 -30 -11 -40 -20 -22 -20 -28 -19 -50 8
-28 34 -33 16 -11 -37 19 -43 45 -59 64 -39 11 11 67 14 67 3 0 -5 6 -7 14 -4
15 6 20 -6 30 -68 7 -40 -1 -51 -43 -53 -35 -2 -74 13 -66 25 9 15 -4 30 -20
24 -8 -4 -12 -11 -8 -18 4 -6 -1 -5 -10 3 -15 11 -17 11 -17 -2 0 -18 -27 -30
-35 -17 -8 14 -42 12 -51 -2 -4 -6 0 -16 9 -23 10 -7 17 -15 17 -17 0 -3 -25
-16 -56 -28 -55 -23 -57 -23 -90 -5 -45 24 -59 66 -33 99 13 17 16 27 8 31 -8
5 -8 10 0 18 15 15 14 30 -1 21 -7 -5 -9 -2 -6 8 4 8 9 41 14 74 4 32 13 73
21 91 7 18 9 33 4 33 -13 0 -58 -95 -72 -153 -7 -28 -15 -44 -19 -37 -10 16 2
65 32 125 38 77 51 95 73 96 11 0 14 3 8 6 -20 7 -15 25 5 19 9 -3 24 -1 32 4
10 6 11 10 3 10 -7 0 -13 4 -13 9 0 5 23 7 51 5 34 -2 59 2 73 12 22 15 42 13
39 -4z m-773 -122 c0 -11 -4 -20 -9 -20 -14 0 -23 18 -16 30 10 17 25 11 25
-10z m1265 0 c3 -5 1 -10 -4 -10 -6 0 -11 5 -11 10 0 6 2 10 4 10 3 0 8 -4 11
-10z m12 -52 c-3 -7 -5 -2 -5 12 0 14 2 19 5 13 2 -7 2 -19 0 -25z m-1337 2
c0 -5 -7 -10 -16 -10 -8 0 -12 5 -9 10 3 6 10 10 16 10 5 0 9 -4 9 -10z m960
-55 c11 -13 7 -15 -29 -15 -44 0 -56 16 -18 23 12 2 25 5 28 6 4 0 12 -6 19
-14z m449 -167 c1 -32 6 -58 11 -58 6 0 10 -18 10 -39 0 -22 5 -41 12 -43 8
-3 5 -12 -10 -28 -12 -13 -22 -20 -22 -14 0 5 -7 65 -15 134 -8 69 -12 141 -8
160 l7 35 7 -45 c4 -25 8 -71 8 -102z m-1519 123 c0 -5 -9 -13 -20 -16 -11 -3
-20 -11 -20 -16 0 -6 -4 -8 -10 -4 -5 3 -2 14 8 25 17 21 42 27 42 11z m654
-47 c9 -24 7 -54 -4 -54 -5 0 -10 9 -10 19 0 10 -7 21 -15 25 -21 8 -19 26 4
26 10 0 22 -7 25 -16z m791 -23 c2 -17 0 -31 -5 -31 -6 0 -10 17 -10 37 0 43
9 39 15 -6z m-830 -23 c-4 -13 -9 -35 -12 -50 -3 -15 -9 -25 -14 -23 -4 3 -6
20 -3 38 9 48 12 57 25 57 7 0 9 -8 4 -22z m333 -46 c-10 -2 -18 -12 -18 -22
0 -13 -5 -17 -20 -13 -11 3 -20 9 -20 14 0 13 53 38 65 31 5 -4 2 -8 -7 -10z
m-282 -41 c12 -29 12 -32 0 -22 -10 8 -16 9 -21 1 -11 -18 -25 0 -25 31 0 41
27 35 46 -10z m-63 -16 c-3 -9 -8 -14 -10 -11 -3 3 -2 9 2 15 9 16 15 13 8 -4z
m47 -33 c0 -5 11 -15 25 -22 13 -7 22 -17 19 -22 -4 -6 -11 -5 -17 1 -6 6 -19
11 -28 11 -21 0 -33 16 -24 30 7 12 25 13 25 2z m130 -52 c0 -10 -52 -40 -70
-40 -7 0 -8 6 0 19 9 17 19 22 63 30 4 0 7 -3 7 -9z m-4375 -466 c79 -41 178
-98 215 -125 14 -10 77 -53 140 -95 63 -42 126 -87 140 -99 14 -13 46 -34 72
-48 26 -14 44 -28 41 -31 -4 -3 1 -6 10 -6 19 0 156 -80 206 -121 128 -103
203 -159 214 -159 7 0 22 -8 33 -19 11 -10 30 -22 42 -25 25 -8 123 -83 135
-103 5 -7 13 -11 18 -7 6 3 18 -1 27 -9 125 -114 156 -137 181 -137 9 0 45 30
128 108 13 12 28 22 33 22 6 0 10 9 10 19 0 11 4 21 8 23 5 2 6 26 2 53 -3 30
-1 64 6 85 6 19 16 55 22 80 19 79 61 160 83 160 11 0 18 4 14 10 -7 11 -36 2
-52 -17 -9 -12 -14 -4 -26 39 -8 29 -17 79 -19 110 -5 56 -4 57 13 35 37 -45
54 -58 91 -69 21 -6 38 -17 38 -24 0 -13 22 -24 47 -24 8 0 38 -12 67 -26 43
-23 62 -27 124 -25 49 2 72 -1 72 -9 0 -35 60 -92 148 -141 50 -28 92 -54 92
-58 0 -4 12 -12 28 -19 98 -44 131 -81 95 -107 -15 -11 -16 -17 -4 -41 40 -89
64 -90 50 -1 -5 28 -5 55 -1 59 4 4 50 12 102 18 86 9 112 7 270 -18 152 -25
169 -29 133 -35 -24 -4 -43 -12 -43 -17 0 -6 -8 -10 -17 -10 -48 -2 -178 -97
-316 -232 -51 -51 -57 -54 -57 -38 0 6 -9 30 -20 52 -11 23 -20 49 -20 58 0 9
-7 25 -16 36 -14 18 -15 17 -9 -20 4 -21 14 -50 22 -63 9 -13 20 -46 24 -72 4
-26 18 -64 32 -84 28 -41 47 -133 47 -226 0 -63 -1 -64 -109 -240 -59 -97
-116 -189 -124 -206 -27 -49 -51 -72 -84 -79 -60 -13 -108 65 -124 199 -4 33
-10 71 -14 84 -6 18 -5 22 4 17 18 -11 13 120 -7 167 -19 47 -31 33 -33 -38
-1 -60 -21 -120 -40 -120 -17 0 -14 -82 4 -104 7 -8 10 -25 9 -38 -2 -13 1
-30 7 -37 15 -17 24 -139 10 -131 -5 4 -39 11 -76 16 -36 5 -76 12 -88 15 -20
5 -22 2 -19 -22 3 -30 34 -60 71 -70 13 -3 21 -10 18 -14 -7 -11 22 -32 49
-35 71 -8 81 -26 41 -69 -14 -15 -25 -33 -25 -39 0 -7 -9 -13 -20 -14 -11 -1
-36 -18 -55 -37 -19 -20 -39 -36 -45 -36 -5 0 -9 -4 -8 -9 4 -14 -59 -79 -82
-86 -11 -4 -20 -13 -20 -21 0 -16 -26 -19 -35 -4 -4 6 -9 63 -11 126 -3 74
-11 132 -22 161 -18 48 -29 58 -49 45 -9 -5 -6 -25 12 -77 13 -39 29 -115 36
-170 7 -55 16 -103 21 -106 5 -3 4 -17 -1 -31 -11 -29 -6 -38 20 -38 16 0 17
-4 9 -25 -8 -20 -5 -27 12 -39 12 -8 26 -12 32 -9 6 4 6 8 -2 11 -8 2 -7 8 4
19 12 13 24 14 64 6 56 -11 71 -5 99 41 26 42 26 49 1 41 -11 -4 -20 -2 -20 4
0 6 -11 10 -24 9 -19 -2 -22 -5 -14 -15 9 -11 6 -12 -14 -4 -14 5 -29 7 -32 4
-3 -4 -6 -2 -6 4 0 5 11 16 25 23 14 7 25 21 25 31 0 10 5 21 11 24 6 4 8 13
5 21 -3 7 -1 16 4 19 6 4 10 2 10 -3 0 -14 92 -24 101 -11 13 21 73 -22 177
-127 56 -57 102 -110 102 -118 0 -7 7 -19 16 -27 18 -15 44 -62 49 -90 3 -14
-6 -23 -33 -35 -45 -19 -122 -14 -207 15 -63 21 -105 58 -163 146 l-28 42 -37
-16 c-44 -19 -45 -24 -12 -39 14 -6 41 -35 60 -64 19 -29 49 -71 65 -92 34
-45 38 -64 13 -73 -10 -3 -38 -15 -63 -26 -79 -35 -155 -56 -276 -77 -66 -12
-139 -25 -164 -29 -107 -20 -247 -41 -273 -41 -17 0 -39 -12 -59 -30 -17 -17
-38 -28 -46 -25 -7 3 -22 5 -33 5 -13 0 -19 7 -20 23 -1 16 -2 18 -6 5 -5 -21
-12 -22 -36 -4 -11 9 -23 43 -33 97 -8 46 -26 131 -39 189 -13 58 -29 154 -36
213 -9 74 -16 103 -22 92 -8 -15 -5 -68 11 -185 3 -25 6 -63 6 -85 l1 -40
-195 -17 c-367 -31 -550 -57 -845 -120 -350 -75 -514 -130 -555 -188 -35 -50
-20 -127 30 -147 110 -45 210 -83 235 -89 17 -4 48 -16 70 -26 l40 -19 -50 6
c-27 4 -48 5 -45 2 8 -8 211 -54 268 -61 82 -10 109 -26 32 -19 -139 12 -471
107 -500 143 -3 4 -35 20 -72 38 -37 17 -82 47 -100 66 -18 20 -39 36 -45 36
-21 0 -15 30 10 52 l22 20 -25 -7 c-14 -4 -43 -11 -65 -16 -48 -12 -75 -45
-77 -94 -2 -43 32 -83 107 -126 39 -22 45 -29 27 -29 -13 0 -21 -4 -18 -9 8
-12 161 -61 192 -61 14 0 37 -6 52 -14 47 -24 99 -30 108 -13 8 14 15 13 64
-3 30 -10 105 -26 165 -35 61 -9 117 -19 125 -22 8 -3 28 -5 43 -4 15 2 33 -2
40 -7 19 -14 89 -23 81 -10 -5 8 -1 9 12 4 10 -4 46 -10 79 -12 74 -6 95 -12
77 -23 -13 -8 54 -19 278 -46 132 -16 571 -47 577 -41 2 2 -16 13 -39 24 -31
15 -37 21 -23 23 28 2 -79 30 -137 36 -27 3 -48 7 -48 9 0 2 11 29 25 60 14
32 24 58 23 59 -2 1 -21 9 -43 18 l-40 15 62 0 61 0 6 -46 c4 -26 4 -57 2 -70
-4 -17 1 -25 19 -32 39 -15 96 -7 114 16 9 12 27 26 39 33 12 6 22 20 22 30 0
33 28 33 47 0 10 -16 28 -32 40 -35 12 -3 21 -11 20 -18 -1 -7 24 -11 83 -11
47 0 97 -4 112 -9 15 -4 34 -3 45 2 12 7 31 6 62 -5 34 -11 45 -12 51 -2 12
18 59 2 70 -24 5 -12 9 -16 9 -9 1 8 6 10 13 5 7 -4 31 -8 53 -10 109 -7 171
-16 177 -26 4 -7 101 -14 270 -19 145 -5 304 -12 353 -17 l90 -9 -145 0 c-179
-1 -175 0 -166 -10 9 -8 1276 -11 1276 -2 0 3 166 5 369 5 203 0 367 3 364 7
-2 5 3 8 11 8 9 0 16 -4 16 -9 0 -15 580 14 590 29 8 12 100 27 275 45 88 9
177 21 197 27 20 6 50 8 67 5 17 -4 33 -2 37 4 3 6 13 7 23 3 9 -3 43 -10 76
-13 l60 -7 -40 -8 c-22 -4 -62 -13 -89 -21 -26 -8 -66 -15 -87 -15 -76 0 -37
-17 54 -24 50 -3 123 -9 161 -12 49 -5 67 -3 62 5 -5 7 2 9 22 5 17 -4 32 -1
36 5 4 6 14 11 22 11 9 0 12 -5 8 -12 -4 -6 -3 -9 2 -6 25 14 55 19 124 22 41
2 111 8 155 14 143 20 319 42 355 43 19 1 78 11 130 22 127 26 135 27 210 37
225 30 261 37 343 63 26 8 49 15 50 15 42 2 265 80 350 123 88 44 112 50 70
16 -69 -57 -327 -173 -448 -203 -38 -9 -108 -27 -155 -40 -47 -12 -123 -30
-170 -39 -47 -9 -95 -18 -107 -21 -14 -3 -23 -12 -23 -24 0 -14 -9 -21 -35
-26 -19 -3 -38 -10 -41 -15 -3 -5 -29 -9 -59 -9 -30 0 -57 -5 -60 -11 -4 -6
-13 -8 -21 -5 -8 3 -26 1 -41 -5 -15 -6 -46 -10 -68 -11 -59 0 -346 -36 -354
-44 -3 -4 9 -4 28 0 19 3 39 1 47 -4 8 -8 14 -8 19 0 9 15 25 12 25 -5 0 -11
11 -15 41 -15 35 0 40 -3 34 -19 -5 -17 0 -18 97 -15 57 2 118 -1 136 -7 38
-13 92 -3 92 17 0 11 12 12 58 8 54 -6 107 -7 170 -4 15 0 37 6 49 12 17 8 26
8 40 -3 11 -9 14 -10 9 -2 -4 8 -1 13 9 13 10 0 13 -4 8 -12 -4 -7 5 -5 20 4
30 20 41 23 32 8 -4 -6 7 -10 24 -10 17 0 31 4 31 9 0 4 27 11 60 14 34 4 70
11 80 17 11 6 39 13 63 15 23 2 62 11 86 20 51 18 64 19 59 5 -11 -35 -574
-179 -801 -206 -97 -11 -82 -28 19 -21 52 3 81 2 69 -3 -11 -5 -31 -9 -44 -9
-14 -1 -52 -7 -85 -15 -70 -17 -285 -52 -401 -66 -44 -5 -124 -16 -177 -24
-142 -22 -449 -55 -550 -60 -47 -2 -90 -6 -95 -9 -17 -11 -447 -46 -683 -57
-129 -6 -264 -12 -300 -15 -36 -2 -200 -7 -365 -11 -165 -3 -303 -8 -307 -10
-3 -2 -9 2 -11 8 -4 10 -8 10 -14 2 -4 -7 -27 -11 -50 -11 -23 1 -36 5 -30 9
7 4 -10 9 -38 10 -100 3 -434 8 -598 7 -93 0 -174 4 -180 9 -15 12 -78 12 -71
0 3 -4 -22 -8 -55 -8 -42 0 -61 4 -62 13 0 9 -2 9 -6 0 -6 -16 -43 -17 -43 -2
0 5 -5 7 -12 3 -16 -10 -138 -13 -138 -4 0 7 -20 7 -40 0 -8 -3 -93 2 -135 7
-22 3 -52 6 -67 6 -16 0 -28 4 -28 8 0 5 -10 9 -22 9 -19 0 -20 -2 -8 -10 11
-7 2 -10 -32 -10 -26 0 -50 5 -54 11 -4 8 -28 10 -68 7 -83 -7 -181 0 -891 61
-60 5 -171 13 -245 16 -74 3 -164 10 -200 15 -264 36 -361 50 -404 60 -26 6
-74 15 -105 20 -224 36 -359 64 -556 115 -163 42 -235 69 -365 138 -108 56
-133 75 -125 94 2 8 -2 29 -9 48 -23 54 -12 183 12 150 13 -18 41 -14 39 6 -1
11 -5 19 -9 19 -4 0 -5 7 -1 16 3 8 -4 29 -17 46 -20 27 -21 35 -11 63 14 38
14 65 1 65 -21 0 3 28 38 44 35 15 58 30 147 94 56 41 156 86 250 112 44 12
89 26 100 31 11 5 38 13 60 18 22 5 101 25 175 45 296 77 639 128 1032 151 61
4 111 12 117 18 5 7 7 83 4 192 l-6 181 -108 79 c-60 43 -109 82 -109 87 0 4
-6 8 -13 8 -8 0 -24 12 -38 26 l-24 27 25 -13 c14 -7 56 -35 95 -63 61 -44
155 -87 155 -70 0 3 11 -6 25 -21 l25 -27 9 23 c5 13 17 50 27 83 40 140 136
301 196 329 24 12 68 96 68 130 0 18 4 24 14 20 8 -3 18 1 22 8 8 12 13 158 6
158 -2 0 -12 -5 -24 -11 -13 -7 -18 -17 -15 -32 3 -12 2 -31 -3 -42 -5 -15
-11 0 -20 54 -13 80 -8 147 14 192 16 32 4 48 -20 28 -11 -9 -20 -9 -40 0 -35
16 -47 14 -40 -6 6 -14 2 -12 -17 5 -13 12 -29 22 -35 22 -7 0 -12 5 -12 10 0
6 5 10 11 10 27 0 -6 19 -60 34 -53 15 -196 97 -243 140 -10 9 -21 16 -25 16
-5 0 -25 16 -46 35 -21 20 -53 41 -70 49 -18 7 -66 45 -108 85 -42 39 -83 71
-91 71 -22 0 -109 59 -107 73 3 23 -1 34 -23 62 l-21 27 -24 -88 c-32 -119
-65 -286 -70 -357 -4 -45 0 -68 17 -105 33 -70 37 -115 12 -140 -12 -12 -24
-17 -27 -12 -11 18 -35 -3 -35 -30 0 -34 56 -185 77 -205 8 -8 19 -15 24 -15
6 0 7 -5 4 -10 -4 -6 -1 -17 5 -25 7 -8 10 -20 7 -27 -3 -9 -7 -6 -13 7 -4 11
-10 22 -13 25 -18 16 -84 127 -120 202 -52 107 -70 167 -181 598 -48 190 -93
358 -99 374 -7 16 -20 68 -31 115 -10 47 -29 113 -40 146 -23 63 -44 191 -34
206 10 17 50 8 119 -27z m6916 -5 c9 -18 2 -38 -45 -133 -43 -85 -67 -155
-107 -301 -84 -309 -89 -327 -109 -390 -40 -127 -70 -255 -70 -298 0 -25 -4
-47 -10 -49 -5 -1 -27 -53 -49 -114 -21 -61 -43 -120 -49 -130 -10 -18 -11
-17 -22 10 -31 84 -80 162 -130 211 -68 67 -160 131 -211 147 -22 6 -39 17
-39 23 0 7 19 30 43 53 23 22 57 60 75 84 19 23 56 67 84 96 28 29 48 55 45
58 -3 3 -14 -4 -24 -16 -97 -119 -440 -388 -543 -426 -80 -30 -100 -39 -100
-47 0 -4 -10 -12 -22 -17 -13 -6 -30 -14 -38 -19 -8 -5 -35 -18 -60 -30 -54
-25 -90 -54 -90 -73 0 -8 -3 -9 -8 -3 -4 6 -17 16 -29 23 -18 9 -23 9 -23 0 0
-8 -3 -8 -9 -2 -15 15 -26 134 -12 134 6 0 11 -7 11 -17 0 -9 3 -14 6 -10 3 3
3 18 0 34 -8 37 -36 40 -67 7 -26 -27 -47 -31 -55 -9 -4 8 -12 15 -19 15 -19
0 -40 80 -65 245 -12 77 -28 163 -35 190 -8 28 -17 78 -20 113 -5 52 -4 62 10
62 16 0 24 -14 29 -46 1 -9 14 -27 29 -38 29 -24 84 -144 118 -256 12 -41 24
-78 26 -83 2 -4 16 6 30 23 13 16 31 30 39 30 8 0 14 3 14 8 0 4 10 12 23 18
46 23 159 96 226 147 38 28 100 70 137 92 37 22 82 55 100 73 18 17 37 32 41
32 5 0 18 8 29 18 51 47 154 112 178 112 18 0 26 5 26 18 0 11 25 31 68 55 37
20 128 80 202 133 74 52 167 117 205 142 39 26 87 60 108 76 34 26 78 41 129
45 10 0 22 -8 29 -20z m-1795 -390 c3 -41 10 -82 15 -91 14 -26 11 -29 -11
-11 -11 10 -20 26 -20 36 0 10 -6 30 -14 45 -25 50 -29 72 -11 72 8 0 18 7 22
15 9 25 13 12 19 -66z m-133 -61 c32 -55 61 -179 82 -343 9 -71 23 -175 32
-230 20 -139 12 -422 -17 -560 -32 -153 -109 -305 -154 -305 -13 0 -28 6 -33
13 -19 25 -63 176 -74 253 -15 110 -60 207 -89 189 -10 -6 -90 72 -90 88 0 5
-15 24 -32 43 -59 62 -78 85 -78 92 0 4 -10 12 -22 17 -13 6 -31 27 -41 47
-16 33 -21 37 -39 27 -19 -10 -19 -12 -2 -30 9 -10 20 -17 24 -14 4 2 22 -16
39 -40 18 -25 37 -45 43 -45 5 0 8 -7 5 -14 -4 -10 -1 -13 8 -10 9 4 16 -3 21
-20 3 -15 15 -31 26 -37 11 -6 17 -13 14 -16 -3 -4 0 -13 8 -22 25 -29 106
-199 106 -223 0 -8 4 -18 10 -24 16 -16 12 -235 -5 -292 -9 -29 -54 -49 -66
-30 -23 37 -36 51 -55 58 -11 4 -42 41 -69 82 -114 173 -141 213 -160 232 -11
12 -33 39 -50 60 -16 22 -42 53 -57 69 -16 17 -28 30 -28 31 10 44 62 230 71
254 13 32 13 33 -36 78 -28 25 -79 66 -115 91 -36 24 -98 68 -138 97 -40 29
-85 59 -100 67 -15 8 -35 21 -45 30 -17 15 -15 17 27 28 24 6 91 16 148 21 57
6 143 15 192 20 49 5 93 7 98 4 27 -17 42 -73 43 -159 0 -77 -4 -98 -28 -149
-25 -55 -28 -84 -6 -70 6 3 19 -4 29 -16 16 -19 22 -20 35 -10 18 15 10 30
-17 30 -17 0 -19 4 -13 28 4 15 9 45 12 67 2 22 11 47 19 56 8 8 14 22 14 30
0 8 5 20 11 26 17 17 1 107 -27 144 -30 41 -24 49 70 79 39 13 99 39 135 58
36 19 104 54 151 78 47 24 103 59 125 78 22 19 45 35 52 36 7 0 23 -19 36 -42z
m-537 -695 c-10 -10 -19 5 -10 18 6 11 8 11 12 0 2 -7 1 -15 -2 -18z m-861
-154 c156 -43 300 -155 368 -285 36 -69 67 -173 67 -225 0 -23 -3 -26 -25 -21
-15 2 -25 0 -25 -7 0 -6 6 -12 13 -12 6 -1 -4 -5 -23 -9 -19 -5 -62 -18 -94
-29 -33 -12 -76 -21 -98 -21 -21 0 -38 -5 -38 -10 0 -6 -21 -11 -47 -11 -27 1
-102 -1 -168 -3 -90 -3 -125 0 -142 10 -13 8 -49 14 -87 14 -36 0 -67 4 -70 9
-5 7 -59 19 -121 27 -65 7 -106 20 -126 38 -13 12 -41 34 -61 50 -21 16 -38
36 -38 45 0 14 -2 14 -10 1 -16 -26 -22 -3 -10 41 24 89 72 162 167 254 75 72
177 123 298 149 43 9 232 5 270 -5z m1870 -144 c4 -31 5 -93 1 -138 -5 -74 -9
-84 -34 -104 -29 -24 -38 -59 -16 -67 7 -3 20 -19 29 -35 8 -17 26 -41 40 -55
14 -14 25 -32 25 -41 0 -9 11 -38 25 -65 14 -27 25 -60 25 -74 0 -22 18 -78
64 -203 26 -70 39 -182 33 -289 -4 -86 -9 -108 -31 -146 -29 -50 -35 -91 -11
-82 22 9 29 -22 11 -48 -17 -24 -21 -48 -8 -48 4 0 15 12 24 28 22 35 22 22 0
-53 l-18 -60 -80 1 c-154 2 -337 21 -348 36 -6 8 -22 18 -36 21 -14 4 -19 4
-12 1 6 -3 12 -10 12 -16 0 -7 -29 -9 -87 -5 -69 4 -104 12 -163 37 -41 18
-97 36 -125 40 -91 13 -109 25 -132 89 -15 42 -4 72 42 117 39 37 42 44 21 44
-9 0 -12 7 -9 20 7 25 -9 26 -29 3 -20 -24 -30 -53 -18 -53 16 0 11 -26 -7
-42 -20 -17 -89 -38 -123 -38 -13 0 -53 9 -89 19 -36 11 -81 24 -100 28 l-34
8 104 109 c167 176 232 236 254 236 8 0 15 -10 17 -22 4 -28 41 -48 90 -48 31
0 40 5 53 30 8 16 15 37 15 46 0 10 5 32 12 51 14 38 8 49 -20 34 -28 -15 -51
11 -31 35 14 18 13 78 -3 107 -12 23 -3 34 15 18 11 -8 18 -6 32 9 23 25 119
28 152 5 19 -13 22 -13 27 0 5 13 12 11 47 -10 48 -31 45 -33 105 83 21 40 43
77 50 83 7 6 31 44 54 85 29 52 44 72 55 68 8 -4 15 -12 15 -20 0 -8 7 -14 15
-14 15 0 17 7 21 87 1 23 9 54 17 70 19 37 41 121 39 156 -2 50 16 28 23 -28z
m-4480 15 c-3 -5 -11 -10 -16 -10 -6 0 -7 5 -4 10 3 6 11 10 16 10 6 0 7 -4 4
-10z m3326 -97 c26 -27 69 -79 97 -118 29 -38 55 -75 60 -80 28 -33 43 -67 40
-85 -3 -20 -8 -17 -53 27 -51 50 -65 66 -125 143 -19 25 -47 57 -62 72 -33 32
-38 88 -8 88 3 0 26 -21 51 -47z m-2094 -5 c-3 -8 -6 -5 -6 6 -1 11 2 17 5 13
3 -3 4 -12 1 -19z m-1462 -8 c-3 -5 -13 -10 -21 -10 -8 0 -14 5 -14 10 0 6 9
10 21 10 11 0 17 -4 14 -10z m1472 -42 c-3 -7 -5 -2 -5 12 0 14 2 19 5 13 2
-7 2 -19 0 -25z m-1223 -17 c4 -5 0 -11 -6 -14 -20 -7 -2 -19 26 -19 15 0 23
-5 19 -11 -4 -6 0 -8 8 -5 54 20 55 20 51 -19 -2 -25 0 -33 6 -25 5 7 16 10
27 6 17 -7 17 -8 -1 -21 -22 -16 -44 -17 -44 -2 0 11 -25 39 -35 39 -3 0 1
-10 10 -23 14 -22 13 -24 -15 -41 -17 -9 -30 -12 -30 -7 0 16 -14 13 -36 -7
-12 -11 -37 -19 -64 -20 -24 -1 -49 -7 -54 -12 -6 -6 -25 -10 -42 -10 -18 0
-36 -4 -39 -10 -10 -16 -45 -11 -72 10 -14 11 -31 20 -38 20 -22 0 -38 28 -31
55 4 16 13 25 26 25 11 0 28 4 38 10 29 16 140 50 165 50 13 0 27 3 31 8 7 6
68 28 88 31 4 1 9 -3 12 -8z m182 -26 c-8 -8 -17 -15 -20 -15 -3 0 -6 7 -6 15
0 9 9 15 21 15 18 0 19 -2 5 -15z m-588 -62 c-4 -22 -22 -20 -26 1 -2 10 3 16
13 16 10 0 15 -7 13 -17z m466 -98 c4 -10 -1 -15 -14 -15 -13 0 -18 5 -14 15
4 8 10 15 14 15 4 0 10 -7 14 -15z m1182 -183 c-9 -9 -37 8 -31 18 5 8 11 7
21 -1 8 -6 12 -14 10 -17z m3383 -47 c21 -70 42 -177 36 -183 -7 -8 -65 180
-69 224 -4 55 9 39 33 -41z m-3069 20 c17 -9 30 -22 30 -30 0 -11 13 -13 53
-11 29 1 59 6 65 10 7 4 21 4 32 1 16 -5 20 -15 20 -46 0 -31 6 -45 26 -62 35
-30 39 -92 8 -113 -19 -13 -24 -13 -39 3 -14 13 -33 17 -79 16 -34 -1 -65 2
-71 7 -10 8 -74 17 -162 22 -60 4 -73 13 -78 56 -3 25 4 39 46 83 27 28 49 56
49 60 0 4 15 10 33 12 17 2 33 5 35 5 2 1 16 -5 32 -13z m3168 -292 c2 -51 1
-109 -3 -130 -7 -35 -8 -36 -15 -13 -4 14 -10 88 -13 165 -7 135 -6 139 9 105
10 -21 19 -72 22 -127z m-3588 94 c0 -7 -6 -22 -14 -33 -14 -19 -14 -19 -13 1
2 17 16 43 25 45 1 0 2 -6 2 -13z m3877 -412 c282 -26 707 -82 888 -117 61
-12 187 -45 282 -75 113 -35 181 -51 197 -47 26 6 179 -46 204 -71 11 -10 7
-14 -23 -19 -20 -4 -40 -5 -43 -2 -3 3 3 6 14 6 15 1 16 2 4 9 -8 5 -26 12
-39 16 -18 6 -22 4 -15 -6 5 -8 9 -23 9 -34 0 -14 8 -21 28 -23 27 -3 39 -22
14 -22 -7 0 -29 -14 -50 -31 -21 -17 -39 -30 -41 -28 -1 2 -12 18 -23 34 -14
20 -55 47 -117 78 -264 132 -581 197 -1230 251 -158 13 -293 29 -299 35 -7 7
-7 18 1 36 14 30 14 30 239 10z m-5522 -195 c-3 -5 -13 -10 -21 -10 -8 0 -12
5 -9 10 3 6 13 10 21 10 8 0 12 -4 9 -10z m-99 -35 c-11 -8 -27 -15 -35 -15
-9 1 -2 7 14 15 39 18 44 18 21 0z m-82 -39 c-10 -8 -21 -12 -24 -10 -5 6 21
24 34 24 6 0 1 -6 -10 -14z m596 -166 c0 -5 -18 -15 -41 -21 -23 -7 -48 -23
-56 -35 -17 -27 -99 -41 -148 -25 -30 9 -29 9 12 10 51 1 73 9 73 27 0 7 16
16 38 19 20 4 53 13 72 20 43 17 50 18 50 5z m5215 -7 c90 -18 119 -35 89 -51
-24 -13 -139 10 -163 32 -10 9 -23 16 -29 16 -6 0 -14 5 -17 10 -9 14 28 12
120 -7z m-115 -39 c0 -17 -2 -17 -35 -2 -24 11 -25 13 -8 19 23 8 43 1 43 -17z
m-5395 -24 c3 -5 -1 -10 -10 -10 -9 0 -13 5 -10 10 3 6 8 10 10 10 2 0 7 -4
10 -10z m5770 -21 c-10 -15 -25 -10 -19 6 4 8 10 12 15 9 5 -3 7 -10 4 -15z
m-5985 -26 c-1 -33 -42 -38 -54 -7 -4 10 3 14 24 14 17 0 30 -3 30 -7z m5975
-4 c10 -15 -1 -23 -20 -15 -9 3 -13 10 -10 16 8 13 22 13 30 -1z m-5545 -19
c0 -5 -5 -10 -11 -10 -5 0 -7 5 -4 10 3 6 8 10 11 10 2 0 4 -4 4 -10z m4315
-20 c3 -5 -1 -10 -9 -10 -9 0 -16 5 -16 10 0 6 4 10 9 10 6 0 13 -4 16 -10z
m955 -10 c0 -5 -7 -10 -15 -10 -8 0 -15 5 -15 10 0 6 7 10 15 10 8 0 15 -4 15
-10z m-6638 -78 c11 -13 10 -15 -12 -9 -14 4 -31 7 -37 7 -7 0 -13 6 -13 14 0
18 45 9 62 -12z m1408 18 c11 -7 12 -12 3 -21 -13 -13 -33 -4 -33 17 0 16 9
18 30 4z m-1280 -50 c77 -29 90 -35 90 -44 0 -4 -6 -6 -12 -3 -7 2 -38 12 -68
22 -30 10 -68 24 -85 31 l-30 14 35 -4 c19 -2 51 -9 70 -16z m7338 -15 c-3 -3
-39 -14 -79 -24 -41 -10 -83 -22 -94 -26 -14 -6 -17 -5 -10 3 6 6 44 20 85 30
78 21 107 26 98 17z m-5814 -184 c35 -14 -6 -18 -44 -5 l-35 13 30 0 c17 0 39
-4 49 -8z m3329 -38 c-13 -2 -35 -2 -50 0 -16 2 -5 4 22 4 28 0 40 -2 28 -4z
m3107 -32 c0 -5 -7 -11 -15 -15 -15 -5 -20 5 -8 17 9 10 23 9 23 -2z m-1200
-71 c0 -5 -5 -10 -11 -10 -5 0 -7 5 -4 10 3 6 8 10 11 10 2 0 4 -4 4 -10z
m517 -166 c-3 -3 -12 -4 -19 -1 -8 3 -5 6 6 6 11 1 17 -2 13 -5z m-3338 -289
c-7 -7 -169 -8 -176 -1 -3 3 36 6 87 6 51 0 91 -2 89 -5z"/>
<path d="M7224 8738 c-16 -12 -33 -28 -37 -35 -4 -7 -15 -13 -24 -13 -20 0
-111 -49 -143 -77 -14 -12 -50 -38 -80 -59 -30 -20 -57 -40 -60 -44 -10 -12
-166 -116 -225 -149 -33 -19 -72 -45 -87 -59 l-26 -25 52 -51 c28 -28 71 -72
94 -98 23 -27 46 -48 51 -48 5 0 7 -9 4 -21 -5 -16 -2 -20 13 -17 15 2 18 -2
16 -22 -2 -23 -1 -24 11 -7 8 9 21 17 29 17 9 0 26 9 39 19 21 17 22 22 12 40
-17 27 -16 34 2 27 9 -3 15 0 15 9 0 8 -8 15 -18 15 -32 0 -32 12 -3 49 15 20
31 44 34 54 4 9 15 17 26 17 10 0 21 9 24 20 3 13 11 18 20 14 9 -3 15 0 14 8
-1 42 4 78 13 78 6 0 10 -7 10 -15 0 -24 18 -17 22 8 2 12 10 22 18 22 10 0
18 15 23 45 17 94 27 122 41 111 16 -13 24 -6 41 37 8 19 25 36 41 42 26 10
73 53 75 68 4 38 4 62 -2 62 -3 0 -19 -10 -35 -22z"/>
<path d="M2208 8243 c-16 -8 -28 -18 -28 -23 0 -18 22 -21 39 -6 10 9 20 14
23 11 3 -3 8 1 11 9 8 21 -13 25 -45 9z"/>
<path d="M6900 8210 c0 -5 5 -10 10 -10 6 0 10 5 10 10 0 6 -4 10 -10 10 -5 0
-10 -4 -10 -10z"/>
<path d="M6260 8055 c-12 -19 -19 -41 -17 -48 4 -7 6 -6 6 4 1 9 8 22 17 29
21 18 37 50 25 50 -5 0 -19 -16 -31 -35z"/>
<path d="M6210 7969 c0 -5 5 -7 10 -4 6 3 10 8 10 11 0 2 -4 4 -10 4 -5 0 -10
-5 -10 -11z"/>
<path d="M6177 7926 c-9 -7 -17 -24 -17 -37 0 -22 2 -22 21 9 24 37 23 47 -4
28z"/>
<path d="M3790 7180 c-13 -8 -13 -10 2 -10 9 0 20 5 23 10 8 13 -5 13 -25 0z"/>
<path d="M3612 7166 c-18 -6 -30 -14 -27 -18 4 -4 15 -3 24 2 9 4 27 13 41 18
35 15 2 13 -38 -2z"/>
<path d="M3500 7124 l-25 -15 25 5 c14 3 31 6 38 6 6 0 12 5 12 10 0 14 -21
12 -50 -6z"/>
<path d="M3246 6941 c-18 -7 -18 -8 -2 -14 19 -8 36 -1 36 14 0 10 -7 11 -34
0z"/>
<path d="M3260 6910 c-18 -4 -21 -8 -11 -14 9 -6 10 -11 2 -15 -7 -4 1 -20 21
-41 34 -36 35 -38 37 -69 0 -10 19 -31 41 -46 26 -18 39 -35 39 -49 -2 -21 36
-105 43 -96 6 9 55 -35 51 -46 -5 -14 70 -94 88 -94 12 0 12 2 1 9 -19 12 -11
45 12 49 14 3 17 0 13 -12 -5 -13 -2 -15 18 -10 15 4 25 2 25 -5 0 -6 5 -11
10 -11 6 0 10 7 10 15 0 9 8 14 21 12 25 -2 33 11 19 33 -9 13 -11 13 -19 0
-6 -8 -11 -12 -13 -10 -15 24 -28 52 -28 62 -1 13 -76 73 -105 84 -8 4 -15 12
-15 20 0 7 -15 16 -33 19 -26 5 -42 19 -76 68 -23 34 -61 83 -84 108 -35 38
-46 45 -67 39z m110 -160 c0 -5 -4 -10 -10 -10 -5 0 -10 5 -10 10 0 6 5 10 10
10 6 0 10 -4 10 -10z m105 -80 c3 -5 -1 -10 -10 -10 -9 0 -13 5 -10 10 3 6 8
10 10 10 2 0 7 -4 10 -10z m-8 -52 c-3 -8 -6 -5 -6 6 -1 11 2 17 5 13 3 -3 4
-12 1 -19z m65 -100 c-9 -9 -12 -7 -12 12 0 19 3 21 12 12 9 -9 9 -15 0 -24z
m115 -24 c-3 -3 -12 -4 -19 -1 -8 3 -5 6 6 6 11 1 17 -2 13 -5z"/>
<path d="M2910 6775 c-16 -17 -20 -29 -14 -35 13 -13 68 35 59 50 -10 15 -20
12 -45 -15z"/>
<path d="M5999 6768 c-8 -17 -3 -48 9 -53 21 -8 25 0 9 16 -7 8 -12 20 -9 27
3 10 -5 18 -9 10z"/>
<path d="M3281 6704 c0 -11 3 -14 6 -6 3 7 2 16 -1 19 -3 4 -6 -2 -5 -13z"/>
<path d="M3245 6680 c3 -5 8 -10 11 -10 2 0 4 5 4 10 0 6 -5 10 -11 10 -5 0
-7 -4 -4 -10z"/>
<path d="M5555 6458 c-16 -23 -58 -69 -92 -104 -35 -35 -63 -68 -63 -73 0 -20
52 -7 71 18 15 19 19 20 19 7 0 -10 5 -14 10 -11 11 7 100 182 100 197 0 17
-16 5 -45 -34z"/>
<path d="M3885 6280 c3 -5 8 -10 11 -10 2 0 4 5 4 10 0 6 -5 10 -11 10 -5 0
-7 -4 -4 -10z"/>
<path d="M3950 6226 c0 -3 15 -12 33 -20 l32 -16 -24 20 c-21 19 -41 26 -41
16z"/>
<path d="M3780 6211 c0 -5 5 -13 10 -16 6 -3 10 -2 10 4 0 5 -4 13 -10 16 -5
3 -10 2 -10 -4z"/>
<path d="M3343 6164 c-12 -3 -26 -11 -31 -17 -14 -19 -33 -147 -30 -202 1 -27
2 -90 0 -138 -1 -67 -5 -86 -14 -81 -10 6 -10 4 0 -7 6 -7 12 -31 12 -53 0
-23 7 -77 15 -121 18 -98 19 -149 4 -122 -12 20 -35 23 -42 5 -3 -7 -6 -5 -6
6 -1 18 -2 18 -21 1 -19 -18 -20 -17 -20 3 0 12 -4 22 -10 22 -5 0 -10 -10
-10 -22 0 -29 -15 -54 -24 -40 -3 6 -14 8 -24 6 -42 -11 -83 241 -49 306 8 14
14 43 15 64 1 21 8 48 15 60 8 12 18 42 22 66 4 25 11 52 16 61 4 9 13 35 18
59 l9 42 -23 -22 c-67 -63 -122 -266 -112 -415 13 -185 70 -294 210 -399 109
-81 306 -69 444 26 39 26 53 46 91 127 l45 96 -6 95 c-7 126 -77 344 -139 435
-36 53 -101 112 -144 131 -50 22 -166 37 -211 28z"/>
<path d="M5040 6160 c8 -5 20 -10 25 -10 6 0 3 5 -5 10 -8 5 -19 10 -25 10 -5
0 -3 -5 5 -10z"/>
<path d="M5037 6116 c-4 -10 -1 -13 8 -9 8 3 12 9 9 14 -7 12 -11 11 -17 -5z"/>
<path d="M3125 5510 c3 -5 8 -10 11 -10 2 0 4 5 4 10 0 6 -5 10 -11 10 -5 0
-7 -4 -4 -10z"/>
<path d="M3270 5479 c0 -5 5 -7 10 -4 6 3 10 8 10 11 0 2 -4 4 -10 4 -5 0 -10
-5 -10 -11z"/>
<path d="M2925 5380 c3 -5 15 -15 26 -21 18 -9 19 -9 7 10 -7 12 -19 21 -26
21 -7 0 -10 -4 -7 -10z"/>
<path d="M2984 5349 c-3 -6 -2 -15 3 -20 5 -5 9 -1 9 11 0 23 -2 24 -12 9z"/>
<path d="M3167 5224 c3 -7 9 -14 14 -14 14 0 10 17 -5 23 -10 4 -13 1 -9 -9z"/>
<path d="M2711 5201 c-8 -5 -9 -11 -3 -15 5 -3 12 1 16 9 6 17 6 18 -13 6z"/>
<path d="M2590 5165 c0 -8 5 -15 10 -15 6 0 10 7 10 15 0 8 -4 15 -10 15 -5 0
-10 -7 -10 -15z"/>
<path d="M2665 5159 c-11 -17 1 -21 15 -4 8 9 8 15 2 15 -6 0 -14 -5 -17 -11z"/>
<path d="M6100 6261 c0 -12 5 -21 10 -21 6 0 10 6 10 14 0 8 -4 18 -10 21 -5
3 -10 -3 -10 -14z"/>
<path d="M6126 6205 c-10 -28 -7 -45 9 -45 12 0 14 7 9 28 -9 35 -10 36 -18
17z"/>
<path d="M6321 5393 c-1 -41 2 -53 14 -53 8 0 15 5 15 10 0 6 -5 10 -11 10 -6
0 -9 10 -6 23 3 12 1 31 -3 42 -6 14 -9 5 -9 -32z"/>
<path d="M5550 5880 c0 -5 5 -10 10 -10 6 0 10 5 10 10 0 6 -4 10 -10 10 -5 0
-10 -4 -10 -10z"/>
<path d="M5480 5841 c0 -17 3 -18 25 -8 32 15 32 27 0 27 -18 0 -25 -5 -25
-19z"/>
<path d="M5460 5785 c0 -8 5 -15 10 -15 6 0 10 7 10 15 0 8 -4 15 -10 15 -5 0
-10 -7 -10 -15z"/>
<path d="M5436 5605 c4 -8 7 -15 9 -15 1 0 8 7 15 15 10 13 9 15 -8 15 -15 0
-20 -5 -16 -15z"/>
<path d="M2872 4570 c17 -26 35 -32 35 -12 0 18 -15 32 -35 32 -10 0 -10 -4 0
-20z"/>
<path d="M3125 4485 c6 -51 5 -55 -13 -55 -11 0 -22 5 -24 12 -3 7 -10 8 -17
4 -19 -12 -6 -62 24 -98 14 -16 26 -37 27 -46 0 -9 2 -22 2 -29 3 -28 14 -21
21 14 4 20 13 50 21 65 29 56 9 188 -29 188 -18 0 -19 -5 -12 -55z"/>
<path d="M3696 4022 c-3 -6 -1 -14 5 -17 15 -10 25 3 12 16 -7 7 -13 7 -17 1z"/>
<path d="M2590 3834 c0 -19 24 -84 31 -84 5 0 6 7 3 15 -4 8 -4 15 -1 15 8 0
37 -60 37 -76 0 -7 5 -16 10 -19 6 -4 10 11 10 37 0 35 -6 50 -35 81 -31 34
-55 47 -55 31z"/>
<path d="M2680 3658 c0 -9 5 -20 10 -23 13 -8 13 5 0 25 -8 13 -10 13 -10 -2z"/>
<path d="M2624 3429 c6 -106 12 -129 32 -129 28 0 10 167 -22 206 -14 17 -15
10 -10 -77z"/>
<path d="M2860 3471 c0 -5 5 -13 10 -16 6 -3 10 -2 10 4 0 5 -4 13 -10 16 -5
3 -10 2 -10 -4z"/>
<path d="M2787 3451 c-3 -14 0 -21 9 -21 16 0 18 9 5 28 -6 10 -10 9 -14 -7z"/>
<path d="M2800 3396 c0 -15 24 -66 31 -66 11 0 23 46 14 59 -6 10 -45 16 -45
7z"/>
<path d="M2884 3300 c-15 -37 -34 -54 -34 -30 0 6 -5 10 -11 10 -7 0 -9 -23
-6 -69 5 -71 -2 -99 -22 -87 -7 5 -11 -3 -11 -22 0 -27 14 -42 41 -42 5 0 8
19 7 41 -1 29 4 46 16 54 9 7 16 17 15 21 -8 34 34 57 58 33 8 -8 13 -5 18 9
6 22 -31 122 -46 122 -5 0 -16 -18 -25 -40z"/>
<path d="M2675 3279 c-4 -6 -3 -15 3 -21 6 -6 11 -4 15 6 7 18 -9 31 -18 15z"/>
<path d="M2453 3112 c-38 -55 -40 -67 -13 -82 26 -14 25 -32 -4 -59 -21 -19
-24 -20 -30 -6 -8 22 -8 21 10 40 13 12 14 19 5 28 -14 14 -30 -6 -68 -83 -24
-49 -28 -69 -31 -176 -3 -98 1 -148 21 -260 14 -76 28 -164 32 -194 4 -30 14
-66 22 -80 13 -23 14 -16 10 69 -3 51 -9 96 -14 100 -14 9 -23 40 -14 45 10 6
8 67 -2 83 -18 29 -24 275 -7 281 6 2 10 14 10 26 0 12 11 33 25 46 13 12 36
40 51 62 16 23 33 37 41 34 9 -4 13 5 12 32 0 34 -1 35 -10 13 -7 -17 -13 -21
-20 -14 -8 8 -7 17 1 32 6 12 9 27 7 34 -2 7 2 27 10 45 21 50 -6 41 -44 -16z"/>
<path d="M2985 2730 c-3 -5 -1 -10 4 -10 6 0 11 5 11 10 0 6 -2 10 -4 10 -3 0
-8 -4 -11 -10z"/>
<path d="M2387 2132 c-2 -4 -1 -18 2 -31 l6 -24 12 26 c10 20 9 26 -2 31 -8 3
-16 2 -18 -2z"/>
<path d="M266 1725 c-20 -15 -20 -15 0 -15 15 0 16 -2 4 -9 -8 -6 -18 -7 -22
-5 -4 3 -8 -2 -8 -10 0 -18 25 -22 35 -6 11 19 26 10 20 -11 -6 -17 -3 -20 12
-17 26 5 29 46 4 69 -24 22 -21 22 -45 4z"/>
<path d="M180 1618 c0 -19 2 -20 10 -8 13 19 13 30 0 30 -5 0 -10 -10 -10 -22z"/>
<path d="M443 1623 c-4 -10 -11 -21 -17 -25 -6 -4 -8 -9 -5 -13 8 -7 49 29 49
44 0 17 -20 13 -27 -6z"/>
<path d="M2410 1492 c0 -4 9 -8 20 -8 11 0 20 4 20 8 0 4 -9 8 -20 8 -11 0
-20 -4 -20 -8z"/>
<path d="M6185 1480 c-3 -5 3 -10 15 -10 12 0 18 5 15 10 -3 6 -10 10 -15 10
-5 0 -12 -4 -15 -10z"/>
<path d="M2640 1470 c0 -4 11 -10 25 -12 14 -3 25 -2 25 2 0 4 -11 10 -25 12
-14 3 -25 2 -25 -2z"/>
<path d="M2355 1460 c11 -5 31 -9 45 -9 20 -1 22 1 10 9 -8 5 -28 9 -45 9 -26
0 -27 -2 -10 -9z"/>
<path d="M2718 1463 c6 -2 18 -2 25 0 6 3 1 5 -13 5 -14 0 -19 -2 -12 -5z"/>
<path d="M2768 1463 c6 -2 18 -2 25 0 6 3 1 5 -13 5 -14 0 -19 -2 -12 -5z"/>
<path d="M2845 1459 c-30 -7 -30 -7 8 -9 20 -2 42 -3 47 -4 6 -1 10 4 10 9 0
12 -24 14 -65 4z"/>
<path d="M2930 1451 c0 -6 12 -10 28 -9 15 1 105 -2 199 -6 177 -9 353 0 302
14 -42 12 -529 13 -529 1z"/>
<path d="M3090 1276 c0 -9 40 -13 46 -5 3 5 -6 9 -20 9 -14 0 -26 -2 -26 -4z"/>
<path d="M3226 1265 c-3 -8 -9 -15 -13 -14 -4 1 -10 0 -13 -1 -15 -8 -156 -5
-161 3 -4 5 -9 5 -13 -2 -4 -6 4 -13 19 -17 19 -5 24 -11 20 -25 -5 -15 -1
-19 15 -19 14 0 20 5 18 16 -2 10 3 19 10 21 7 3 12 -5 12 -21 0 -19 5 -26 19
-26 11 0 23 -4 26 -10 3 -5 21 -10 38 -10 29 -1 30 -2 15 -14 -20 -15 -24 -36
-7 -36 5 0 7 5 4 10 -3 6 1 10 10 10 8 0 18 7 21 15 7 16 34 21 34 6 0 -5 10
-11 23 -13 17 -2 22 -9 21 -30 0 -35 12 -36 20 -4 8 33 33 56 59 55 18 0 16
-3 -12 -15 -30 -14 -32 -16 -16 -28 10 -7 29 -10 44 -7 l26 5 -30 7 c-22 5
-24 7 -8 8 12 0 24 7 26 14 4 10 6 10 6 0 1 -8 13 -12 29 -12 23 2 24 2 5 6
-31 6 -29 23 2 23 16 0 25 -6 25 -16 0 -10 6 -14 15 -10 8 3 14 2 14 -2 -3
-17 2 -30 20 -50 19 -23 41 -29 41 -12 0 6 -7 10 -15 10 -8 0 -15 9 -15 20 0
11 7 20 15 20 8 0 15 -4 15 -9 0 -6 12 -6 32 0 18 5 34 9 35 9 2 0 3 -8 3 -17
1 -17 2 -17 13 -1 11 13 21 15 61 7 26 -5 50 -8 54 -6 4 1 18 -8 32 -20 26
-25 45 -29 55 -12 14 21 49 27 73 13 12 -8 27 -12 33 -8 6 4 15 0 20 -7 5 -9
9 -10 9 -2 0 7 14 9 41 6 39 -6 41 -5 34 16 -5 15 -2 21 10 21 9 0 14 -4 11
-9 -7 -11 68 -26 83 -17 5 4 12 2 16 -3 8 -14 35 -2 35 15 0 16 36 19 45 4 4
-6 15 -1 26 12 12 13 18 18 15 11 -4 -6 0 -14 6 -16 10 -4 9 -8 -2 -16 -13
-10 -13 -12 0 -21 8 -5 20 -10 25 -10 6 0 3 5 -5 10 -13 8 -13 10 2 10 9 0 24
7 32 16 9 9 16 11 16 4 0 -6 5 -8 10 -5 17 11 11 23 -15 29 -14 4 -25 11 -25
16 0 13 17 13 25 0 4 -7 34 -8 82 -4 42 4 88 8 102 9 56 4 61 5 61 15 0 6 -6
10 -14 10 -8 0 -17 13 -21 29 -4 20 -11 28 -21 24 -9 -3 -14 2 -14 16 0 14 -5
19 -15 15 -8 -4 -15 -17 -15 -30 0 -13 -4 -24 -9 -24 -5 0 -8 8 -7 17 0 12 -7
19 -21 21 -13 2 -23 8 -23 13 0 5 -16 9 -35 9 -21 0 -35 5 -35 13 0 7 -4 6
-10 -4 -8 -13 -24 -15 -85 -13 -50 3 -75 0 -75 -7 0 -8 -4 -8 -14 1 -9 6 -56
13 -110 15 -53 2 -100 6 -106 10 -5 3 -10 1 -10 -4 0 -6 -7 -11 -15 -11 -8 0
-15 5 -15 11 0 5 -5 7 -12 3 -15 -9 -108 -13 -108 -5 0 11 -49 11 -55 1 -4 -6
-13 -5 -24 1 -13 9 -25 7 -50 -6 -25 -13 -35 -14 -41 -5 -12 19 -180 27 -191
9 -6 -10 -9 -10 -9 -1 0 6 -4 12 -10 12 -5 0 -9 -3 -9 -7 3 -19 -2 -33 -12
-33 -6 0 -9 8 -7 18 4 15 -5 17 -85 19 -75 2 -88 0 -83 -12 3 -9 -1 -15 -10
-15 -10 0 -14 6 -10 15 3 9 0 15 -8 15 -8 0 -16 -7 -20 -15z m-26 -60 c0 -8
-4 -15 -10 -15 -5 0 -7 7 -4 15 4 8 8 15 10 15 2 0 4 -7 4 -15z m68 -22 c-10
-2 -26 -2 -35 0 -10 3 -2 5 17 5 19 0 27 -2 18 -5z m1322 -3 c0 -12 -44 -24
-62 -17 -8 3 -4 9 12 15 32 14 50 14 50 2z m-470 -29 c0 -6 -4 -13 -10 -16 -5
-3 -10 1 -10 9 0 9 5 16 10 16 6 0 10 -4 10 -9z m-193 -23 c-3 -8 -6 -5 -6 6
-1 11 2 17 5 13 3 -3 4 -12 1 -19z m-47 -18 c0 -5 -4 -10 -10 -10 -5 0 -10 5
-10 10 0 6 5 10 10 10 6 0 10 -4 10 -10z m340 -1 c0 -5 -9 -9 -19 -9 -11 0
-28 -3 -38 -7 -15 -6 -16 -4 -5 9 13 16 62 22 62 7z"/>
<path d="M2988 1243 c7 -3 16 -2 19 1 4 3 -2 6 -13 5 -11 0 -14 -3 -6 -6z"/>
<path d="M4621 1224 c0 -11 3 -14 6 -6 3 7 2 16 -1 19 -3 4 -6 -2 -5 -13z"/>
<path d="M2953 1214 c11 -11 76 -14 82 -3 4 5 -14 9 -41 9 -26 0 -44 -3 -41
-6z"/>
<path d="M7620 1190 c0 -12 8 -12 35 0 18 8 17 9 -7 9 -16 1 -28 -3 -28 -9z"/>
<path d="M7525 1181 c-16 -3 -25 -9 -20 -12 6 -4 26 -1 45 7 37 13 25 16 -25
5z"/>
<path d="M7448 1163 c6 -2 18 -2 25 0 6 3 1 5 -13 5 -14 0 -19 -2 -12 -5z"/>
<path d="M7280 1140 c0 -5 4 -10 9 -10 6 0 13 5 16 10 3 6 -1 10 -9 10 -9 0
-16 -4 -16 -10z"/>
<path d="M7138 1123 c7 -3 16 -2 19 1 4 3 -2 6 -13 5 -11 0 -14 -3 -6 -6z"/>
<path d="M3500 1110 c0 -5 5 -10 10 -10 6 0 10 5 10 10 0 6 -4 10 -10 10 -5 0
-10 -4 -10 -10z"/>
<path d="M3906 1071 c-4 -7 -5 -15 -2 -18 9 -9 19 4 14 18 -4 11 -6 11 -12 0z"/>
<path d="M4105 1060 c-3 -5 1 -10 9 -10 9 0 16 5 16 10 0 6 -4 10 -9 10 -6 0
-13 -4 -16 -10z"/>
<path d="M5860 4430 c0 -19 3 -21 12 -12 9 9 9 15 0 24 -9 9 -12 7 -12 -12z"/>
<path d="M5784 4345 c-8 -21 6 -41 17 -24 12 19 11 39 -1 39 -6 0 -13 -7 -16
-15z"/>
<path d="M6001 2711 c-6 -10 -7 -21 -4 -25 13 -12 21 -5 21 19 0 30 -4 31 -17
6z"/>
<path d="M6070 2661 c-5 -11 -10 -30 -10 -43 0 -14 -13 -37 -30 -53 -16 -16
-30 -37 -30 -47 0 -10 -9 -27 -19 -37 -28 -28 -17 -61 19 -61 16 0 30 -5 32
-11 3 -9 10 -9 26 0 27 14 29 31 3 31 -16 0 -51 38 -51 55 0 11 22 4 42 -15
12 -11 32 -20 44 -20 13 0 27 -6 31 -13 4 -6 21 -19 37 -27 34 -17 96 -76 96
-90 0 -6 -8 -10 -17 -11 -10 0 -3 -6 16 -13 57 -20 73 -15 77 26 3 35 0 38
-56 75 -62 40 -70 50 -45 59 21 9 0 44 -26 44 -14 0 -19 5 -16 18 5 21 -26 76
-67 120 -35 37 -42 39 -56 13z m25 -71 c3 -5 1 -10 -4 -10 -6 0 -11 5 -11 10
0 6 2 10 4 10 3 0 8 -4 11 -10z m51 -15 c18 -14 18 -14 -8 -15 -18 0 -28 5
-28 15 0 19 11 19 36 0z"/>
<path d="M5837 2634 c-9 -10 2 -24 18 -24 9 0 12 6 9 15 -6 16 -17 19 -27 9z"/>
<path d="M5880 2610 c0 -13 20 -13 40 0 12 8 9 10 -12 10 -16 0 -28 -4 -28
-10z"/>
<path d="M6080 2410 c0 -5 7 -10 15 -10 8 0 15 5 15 10 0 6 -7 10 -15 10 -8 0
-15 -4 -15 -10z"/>
<path d="M6130 2385 c7 -8 17 -15 22 -15 6 0 5 7 -2 15 -7 8 -17 15 -22 15 -6
0 -5 -7 2 -15z"/>
<path d="M6155 2180 c3 -5 11 -10 16 -10 6 0 7 5 4 10 -3 6 -11 10 -16 10 -6
0 -7 -4 -4 -10z"/>
<path d="M2022 3379 c2 -6 7 -10 11 -10 4 1 15 1 25 1 14 0 15 2 2 10 -20 13
-43 13 -38 -1z"/>
</g>
</svg>
